Patient4_TMGait_0pt6_02_left_38_EMG.mot
version=1
nRows=40
nColumns=33
inDegrees=no
endheader
time	1LAddLong	2LGlutMax	3LGlutMed	4LIliopsoas	5LSemiMemb	6LBicFemLong	7LRecFem	8LVastMed	9LVastLat	10LGasMed	11LTibAnt	12lTibPost	13LPeroneusLong	14LSol	15LExtDigLong	16LFlexDigLong	17RAddLong	18RGlutMax	19RGlutMed	20RIliopsoas	21RSemiMemb	22RBicFemLong	23RRecFem	24RVastMed	25RVastLat	26RGasMed	27RTibAnt	28RTibPost	29RPeroneusLong	30RSol	31RExtDigLong	32RFlexDigLong
47.23	0.011139	-0.37384	-0.24109	0.006256	-0.002136	0.022278	0.070038	0.005646	-0.016174	0.27847	-0.013123	0.028229	-0.018921	-0.21973	0.072632	0.019684	-0.054169	0.02182	0.4715	0.003204	-0.24628	0.1535	0.11017	0.11047	-0.087891	0.036469	-0.034485	-0.00946	0.072479	0.013885	0.001373	-0.005493
47.231	0.034637	-0.39597	-0.24109	-0.003204	0.021057	0.023804	0.098114	0.004272	-0.026855	-0.37399	0.001678	0.018921	-0.005798	-0.16495	0.041351	-0.71289	0.065002	-0.000458	0.23361	-0.037842	-0.17471	-0.088196	0.11871	-0.062256	-0.083313	0.028381	-0.022888	-0.005646	0.10254	0.019073	0.000305	-0.010681
47.232	0.048218	-0.36819	-0.25955	0.019531	0.040741	-0.018616	0.061951	0.005188	-0.023651	-0.85785	0.000458	0.012665	0.028839	-0.14893	0.022278	-0.02594	0.13245	0.09079	0.23758	-0.058746	-0.17136	-0.18387	0.28397	-0.13641	-0.17609	0.024414	-0.026245	-0.001526	0.045624	0.000763	0.013733	-0.016022
47.233	0.017242	-0.33661	-0.28885	0.00351	0.068512	-0.00473	0.067291	0.006104	-0.012817	-0.95993	0.009766	-0.001831	0.071259	-0.20783	0.010681	-0.010834	0.041199	0.18188	0.66681	-0.022278	-0.24124	-0.11505	0.23224	-0.14603	-0.25131	0.025177	0.009613	-0.007477	0.081177	-0.023651	0.001831	-0.005341
47.234	0.014496	-0.36514	-0.28458	0.010986	0.058746	0.10025	0.091858	0.00473	-0.011444	-0.61096	0.019684	0.000305	0.13351	-0.04364	-0.015564	0.001373	0.009918	0.18509	0.89066	0.077515	-0.84427	-0.037537	0.1358	-0.020905	-0.26154	0.019379	0.009308	-0.000916	0.1059	-0.018311	0.001831	-0.011597
47.235	-0.001831	-0.33478	-0.28641	-0.007782	0.037842	0.13657	0.10086	0.010376	-0.024567	-0.34943	0.015259	-0.012665	0.16174	-0.017242	-0.027313	-0.00824	0.041351	0.062561	0.44998	0.13504	-0.36957	-0.11047	0.19608	-0.016937	-0.13794	0.019073	-0.081482	-0.001373	0.023499	-0.002289	0	0.000305
47.236	-0.006866	-0.31937	-0.31418	-0.012207	0.011444	0.15396	0.103	0.01297	-0.025635	-0.39352	0.007324	-0.001373	0.17471	-0.2594	-0.046539	-0.28885	0.05127	0.032806	0.20828	0.060577	0.56305	-0.25971	0.10498	0.13321	-0.028076	0.021973	-0.082245	-0.002747	-0.01358	0.010529	0	-0.006714
47.237	-0.001526	-0.30472	-0.354	-0.015411	0.003815	0.13138	0.093079	0.007477	-0.016479	-0.36758	0.007629	0.018311	0.12451	-0.04776	0.004883	0.40634	0.071869	0.040894	0.29175	-0.001831	0.72708	-0.41336	-0.10101	0.18066	-0.043488	0.026703	-0.12436	0.007782	-0.066681	-0.024414	0.001526	-0.00885
47.238	0.001678	-0.26047	-0.37598	0.018311	-0.005341	0.065002	0.076599	0.002441	0.009155	-0.29144	0.014954	0.027161	0.043793	-0.034485	0.054474	0.3949	0.065918	-0.018768	0.46616	-0.018616	0.43015	-0.66437	-0.044403	-0.15167	-0.067139	0.028076	-0.14084	-0.002594	-0.087128	-0.011902	0.000763	-0.006409
47.239	0.008545	-0.27268	-0.37811	0.034943	-0.013123	0.017853	0.075531	0.00351	0.007782	-0.18829	0.02594	0.028839	-0.036926	-0.080261	-0.002594	-0.20462	0.10834	-0.02243	0.49423	-0.002136	0.25467	-0.91202	0.14084	-0.10864	-0.11185	0.031128	-0.038452	0.000305	-0.014496	-0.023499	0.000305	0.001831
47.24	0.004578	-0.3035	-0.39795	0.0177	-0.018005	-0.065002	0.060883	-0.001678	0.004883	0.041809	0.017395	0.027924	-0.071259	0.031281	-0.05722	-0.11978	0.20004	-0.097656	0.48721	0.005951	0.3891	-0.75607	0.18738	0.42664	-0.1062	0.037079	0.033417	-0.00473	-0.008087	-0.024109	-0.001678	-0.005798
47.241	0.010071	-0.32181	-0.42435	0.014954	0.00946	-0.11078	0.039215	0.000458	0.005798	0.26215	0.016479	0.001526	-0.10712	0.3009	-0.050812	0.001984	0.11169	-0.1651	0.43503	0.007782	0.60425	-0.3656	0.23651	0.457	-0.10666	0.039368	0.023651	0.002899	0.011139	-0.054932	0.002747	0.003815
47.242	0.007172	-0.24399	-0.46066	0.010681	0.052032	-0.12024	0.038452	0.002441	0.014191	0.23956	0.01709	-0.007172	-0.11536	0.38116	-0.024414	-0.023041	-0.033875	-0.12909	0.33112	0.003357	0.62531	0.068665	0.15442	0.55298	-0.018768	0.03006	0.05249	-0.003052	0.032043	-0.05188	-0.001068	-0.010223
47.243	0.002594	-0.25772	-0.49194	0.011292	0.082092	-0.080719	0.053864	0.006104	0	0.15335	0.01358	-0.020294	-0.11566	0.37613	-0.007782	-0.03006	-0.066833	-0.18845	0.3981	0.007477	0.46005	0.068665	0.077972	0.17761	0.17624	0.017242	0.051575	-0.001678	0.29495	-0.019684	0.002747	-0.017853
47.244	-0.000763	-0.27145	-0.49957	-0.000458	0.077515	0.026093	0.041504	0.005188	-0.013428	0.10803	0.018311	-0.003662	-0.090027	0.31433	0	-0.018616	-0.18021	-0.20432	0.47104	-0.010681	0.58884	0.041351	-0.1059	0.081329	0.83008	0.009613	0.000458	-0.000305	0.62027	-0.022888	0.001373	-0.014496
47.245	-0.005646	-0.22781	-0.49042	0.008087	0.041656	0.064545	0.040588	0.00946	-0.011444	0.029449	0.01297	-0.016479	-0.08316	0.1889	0.013123	-0.028381	-0.26489	-0.08316	0.48843	0.000153	0.45532	0.26718	-0.1767	-0.000153	0.99121	-0.014648	-0.00061	-0.004425	0.46524	-0.014801	-0.001068	-0.012207
47.246	-0.008545	-0.29617	-0.49805	0.006409	0.021057	0.029755	0.003815	0.007172	0.00885	-0.01709	0.008087	-0.005646	-0.056305	0.1236	0.011902	-0.007935	-0.26657	-0.096436	0.30579	0.016937	0.49454	0.55115	-0.21942	0.11841	0.71808	-0.04425	-0.008087	-0.007782	0.21255	0.003052	0.000153	-0.016937
47.247	-0.002899	-0.31921	-0.55023	0.015259	0.006714	-0.00351	-0.022736	-0.002747	0.018768	-0.067902	0.01358	-0.001831	-0.034637	0.13214	0.008698	0.002441	-0.22003	-0.1004	0.14954	0.030212	0.46402	0.76263	0.04364	0.16724	0.14908	-0.021362	0.011749	-0.003052	-0.3447	0.019226	-0.000916	-0.011597
47.248	0.005035	-0.27374	-0.56946	0.006866	0.002441	-0.058441	-0.013428	0.006104	0.019073	-0.060272	0.015564	0.008698	-0.032806	0.18814	0.008698	-0.014038	-0.13107	-0.028839	0.061951	-0.009613	0.54291	0.68451	0.2211	0.11581	-0.39307	0.001373	0.039368	-0.008698	-0.2742	0.025635	0	-0.005951
47.249	0.014801	-0.31891	-0.63355	-0.004578	0.016174	-0.12589	0.003357	-0.00351	-0.007782	-0.024414	0.00824	-0.01236	-0.013733	0.19745	0.022278	-0.016937	-0.040894	-0.024414	0.022278	-0.040131	0.61218	0.52078	0.41901	0.4332	-0.51727	0.040894	0.024109	-0.00885	-0.015869	0.076447	0.003967	-0.002289
47.25	0.005035	-0.30502	-0.59113	-0.015259	0.0383	-0.13565	0.00412	-0.000458	-0.000153	-0.013733	0.009003	0.005188	-0.018311	0.19516	0.03006	-0.010986	0.038757	-0.057068	0.47134	-0.12192	0.57053	0.31036	0.52353	0.34439	-0.41184	0.044556	0.022278	-0.005646	0.089874	0.010529	0.003204	-0.009766
47.251	0.006561	-0.29236	-0.58426	-0.018768	0.047302	-0.009308	0.029449	0.000153	0.003815	-0.007477	0.011749	0.005798	-0.015717	0.17929	0.025024	-0.011444	0.10391	-0.15152	0.99457	-0.19333	0.77377	0.10696	0.45792	0.1413	-0.28641	0.025024	0.015106	-0.006409	0.094147	0.031281	0.005188	-0.002441
47.252	0.010986	-0.3215	-0.60883	0.004272	0.044861	0.057068	0.026093	0.005646	-0.008087	0.052795	0.00946	-0.006714	-0.018005	0.1445	0.027771	-0.006256	0.14404	-0.1387	0.78156	-0.12833	0.80658	-0.10056	0.32257	-0.061951	-0.10178	0.024414	0.051727	-0.004578	0.016785	0.056915	-0.00061	-0.00351
47.253	0.003052	-0.26047	-0.61203	0.04715	0.036774	0.041199	0.018921	0.005493	-0.013123	0.075836	0.008392	0.000916	-0.006866	0.1355	0.016937	-0.004883	0.177	-0.041046	0.47028	-0.009766	0.60974	-0.22522	0.25543	-0.3212	0.12344	0.033264	0.02655	0.002441	0.037537	0.057068	-0.002594	-0.002136
47.254	0.002289	-0.26596	-0.62439	0.043793	0.039978	0.007172	0.004425	-0.006561	-0.004425	0.07431	0.004272	-0.005035	-0.01709	0.1059	-0.006561	-0.005646	0.13138	0.058136	0.48233	0.068817	0.32257	-0.039673	0.094604	-0.55527	0.53009	0.024414	-0.016785	-0.003204	0.15121	0.04364	0.000458	-0.004272
47.255	0.006104	-0.27939	-0.59998	0.019531	0.039063	0.023499	-0.000763	-0.001984	-0.011292	0.084229	0.006409	0.009613	-0.00351	0.10132	-0.003204	-0.017242	-0.016785	0.20355	1.2492	0.2063	-0.1329	0.32501	0.013428	-0.44678	0.44937	0.012207	-0.02594	-0.012207	0.12619	-0.016937	0.00061	-0.006409
47.256	-0.002289	-0.11795	-0.63232	0.003815	0.03418	0.010529	-0.023193	0.002899	-0.013275	0.04364	0.004272	0.00885	-0.002441	0.065918	0.010223	-0.008392	-0.073547	0.18219	0.79361	0.31357	0.10101	0.36987	-0.23346	-0.15213	0.21133	0.005798	-0.042419	-0.02533	0.12116	-0.18845	-0.001373	0.001984
47.257	0.008698	-0.10208	-0.62729	-0.023956	0.023956	0.032959	-0.008087	-0.003357	-0.016479	-0.037689	0.004272	-0.013733	0.004425	0.064087	0.006714	-0.011902	-0.12024	0.15823	0.48111	0.16266	0.34073	0.36957	-0.40634	0.014343	-0.049896	-0.003052	0.014343	-0.01358	0.15915	-0.16525	0.001526	-0.00946
47.258	0.006409	-0.15625	-0.6279	0.000458	0.022736	0.046539	-0.034943	0.001984	0.001678	-0.18143	0.002899	0.014343	-0.007019	0.06134	0.018158	-0.006104	-0.14328	0.14099	0.59845	0.052185	0.46234	0.3775	-0.30258	0.11307	-0.34409	-0.003052	0.093079	-0.008392	-0.05249	-0.11993	0.000153	-0.010681
47.259	0.015717	-0.17929	-0.62592	-0.004272	0.021973	0.045166	-0.063934	0.003357	0.007629	-0.10483	0.010071	0.005493	-0.019531	0.069122	0.012665	-0.002289	-0.13367	0.015411	0.86563	0.002136	0.51941	0.22293	-0.32166	0.36682	-0.59128	0.010376	0.074005	-0.010681	0.012207	-0.07019	-0.001221	-0.01709
47.26	0.013885	-0.1712	-0.60852	-0.007935	0.009308	0.001984	-0.070496	0.005798	0.008087	-0.010529	0.013885	0.010376	-0.03006	0.049896	0.011597	-0.0177	-0.094604	-0.068207	0.93674	-0.006256	0.42801	0.079193	-0.48614	0.54535	-0.65308	0.008392	0.020142	-0.006409	0.22507	-0.052338	0.001068	-0.014038
47.261	0.014954	-0.16663	-0.55679	0.001526	0.009155	0.002136	-0.081024	-0.000916	0.013123	0.04715	0.017548	0.003967	-0.033264	0.061188	0.014954	-0.002441	-0.059662	-0.16296	1.1221	-0.000458	0.33936	0.13519	-0.62317	0.50247	-0.5278	0.002594	-0.049591	-0.010376	0.40894	-0.020142	0.007782	-0.004883
47.262	0.005188	-0.13733	-0.52612	0.007782	0.01236	-0.027924	-0.093536	-0.002594	0.004578	0.041962	0.014191	0.002899	0.016785	0.037842	0.022736	-0.010681	-0.071259	-0.22278	0.50552	-0.00824	0.29755	0.20233	-0.35858	0.34576	-0.44983	0.012207	-0.10635	-0.011292	0.52719	-0.078735	-0.003357	-0.001678
47.263	0.004272	-0.1387	-0.50186	-0.009766	0.009155	-0.025177	-0.11673	0.002136	0.014496	-0.004578	0.02594	0.007477	0.004272	0.029144	0.019226	0.010071	-0.036774	-0.14481	0.079803	0.017242	0.46356	0.47363	-0.11551	0.17609	-0.3122	-0.001221	-0.034332	-0.015259	-0.086365	-0.031586	0.002899	-0.005035
47.264	0.004425	-0.066681	-0.44601	-0.001831	0.022583	-0.014954	-0.13534	-0.003815	0.012665	0.032654	0.019073	0.009308	-0.006256	0.038757	0.004272	-0.016632	-0.025787	-0.08728	0.22095	-0.053558	0.39093	1.2044	-0.10346	0.17212	-0.11307	0	-0.052032	-0.011139	0.004425	-0.019531	0.001221	0.001678
47.265	0.002747	-0.053406	-0.39612	0.002441	0.021973	-0.019379	-0.14618	-0.00061	0.017548	0.041199	0.00824	-0.011444	0.019073	0.051575	-0.00824	-0.00946	-0.019226	-0.10757	0.48981	-0.047455	0.62271	1.2328	-0.089417	0.084534	0	0.005341	-0.028534	-0.010681	-0.062103	-0.078278	0.002594	-0.002747
47.266	0.001678	-0.037842	-0.35309	-0.008087	0.031738	0.021057	-0.1532	0.001678	0.020142	-0.09201	-0.020905	0.00061	0.025635	0.007019	-0.013885	-0.011292	-0.000916	-0.19089	0.41214	-0.013885	0.6218	1.1909	-0.085449	0.056763	0.083466	0.005798	-0.018616	-0.013275	-0.33829	-0.096283	-0.00061	0.011902
47.267	0.000153	-0.049286	-0.34515	0.005188	0.013428	0.069885	-0.16586	0	0.026398	-0.12741	-0.056152	0.009003	-0.011749	-0.045624	-0.025024	-0.002594	0.044556	-0.47424	0.28198	-0.12665	0.68985	1.2393	0.053558	-0.23499	0.1442	0.004425	-0.004425	-0.011597	-0.28625	-0.17349	0.002899	0.002747
47.268	0.006409	0.024872	-0.33859	-0.002899	0.008087	0.060272	-0.17166	0.002747	0.029144	-0.060425	-0.081635	0.00885	-0.03952	0.019379	0.044861	0.001526	0.066681	-0.74554	0.049133	-0.17075	0.71945	1.1813	0.11627	-0.55237	0.21942	-0.001831	-0.005035	-0.014801	-0.025787	-0.07431	-0.001221	-0.001373
47.269	0.009308	0.16953	-0.31784	0.002899	0.024567	-0.021515	-0.19531	0	0.050659	-0.032196	-0.069885	-0.002594	-0.027618	0.04837	0.15595	-0.005798	0.079193	-0.8493	-0.33508	-0.035553	0.61844	1.4166	-0.24902	-0.48584	0.54077	0.000763	-0.01709	-0.012665	0.016632	-0.016632	0.002594	-0.002441
